<svg xmlns="http://www.w3.org/2000/svg" width="1280" height="820" viewBox="0 0 1280 820">
<defs><linearGradient id="g" x1="0" y1="0" x2="1" y2="1"><stop stop-color="#0a1526"/><stop offset=".55" stop-color="#10243d"/><stop offset="1" stop-color="#08111f"/></linearGradient><radialGradient id="r" cx="82%" cy="18%" r="70%"><stop stop-color="#ff9f43" stop-opacity=".28"/><stop offset="1" stop-color="#ff9f43" stop-opacity="0"/></radialGradient></defs>
<rect width="1280" height="820" fill="url(#g)"/><rect width="1280" height="820" fill="url(#r)"/>
<rect x="90" y="92" width="1100" height="610" rx="26" fill="#f7f9fc"/>
<rect x="90" y="92" width="1100" height="70" rx="26" fill="#0e1b2d"/>
<circle cx="130" cy="127" r="8" fill="#ff6b6b"/><circle cx="160" cy="127" r="8" fill="#ffd166"/><circle cx="190" cy="127" r="8" fill="#38d97b"/>
<rect x="135" y="210" width="450" height="46" rx="10" fill="#0b1626" opacity=".14"/>
<rect x="135" y="278" width="560" height="20" rx="10" fill="#0b1626" opacity=".20"/>
<rect x="135" y="314" width="490" height="20" rx="10" fill="#0b1626" opacity=".12"/>
<rect x="135" y="380" width="210" height="54" rx="14" fill="#ff9f43"/>
<rect x="780" y="220" width="310" height="300" rx="24" fill="#0b1626" opacity=".13"/>
<rect x="810" y="255" width="250" height="22" rx="10" fill="#0b1626" opacity=".18"/>
<rect x="810" y="300" width="210" height="18" rx="9" fill="#0b1626" opacity=".12"/>
<rect x="810" y="334" width="230" height="18" rx="9" fill="#0b1626" opacity=".12"/>
<rect x="810" y="390" width="120" height="42" rx="12" fill="#ff9f43" opacity=".88"/>
<g font-family="Arial, sans-serif"><text x="135" y="590" fill="#0b1626" font-size="50" font-weight="800">France Bâtiment</text><text x="138" y="640" fill="#68758a" font-size="24">Bâtiment / Toiture</text><text x="138" y="675" fill="#ff9f43" font-size="18" font-weight="800">Capture temporaire — remplace par l’image réelle du site</text></g>
</svg>